PathFileType	4	(X/Y/Z)	C:\Users\Willi\Documents\Github\OpenSimMatlabBasic\ExampleData\Trials\dynamic04\marker_experimental.trc
DataRate	CameraRate	NumFrames	NumMarkers	Units	OrigDataRate	OrigDataStartFrame	OrigNumFrames
150.000000	150.000000	2	179	mm	150.000000	228	366
Frame#	Time	LFHD			LBHD			RFHD			RBHD			C7			T10			CLAV			STRN			RBAK			LSHO			LUPA			LELB			LFRA			LWRB			LWRA			LFIN			RSHO			RUPA			RELB			RFRA			RWRB			RWRA			RFIN			SACR			LASI			LT1			LT2			LT3			LS1			LS2			LS3			LHEE			LTOE			RT1			RT2			RT3			RS1			RS2			RS3			RHEE			RTOE			SACO			SACA			SACL			SACP			RASI			RM5D			LM5D			LKNE			RKNE			LANK			RANK			LKJC			RKJC			LAJC			RAJC			LTHI			RTHI			LTIB			RTIB			P_ForcePlate1			P_ForcePlate2			P_ForcePlate3			funktRKJC			funktLKJC			funktRHIP			funktLHIP			LHJC			RHJC			LKNEshank			RKNEshank			LKJCshank			RKJCshank			LHF			COP_FP1			VECTIP_FP1			RawCentreFP1			COP_FP2			VECTIP_FP2			RawCentreFP2			COP_FP3			VECTIP_FP3			RawCentreFP3			LPelvisAngles			RPelvisAngles			LFootProgressAngles			RFootProgressAngles			LHipAngles			RHipAngles			LKneeAngles			RKneeAngles			LAnkleAngles			RAnkleAngles			LFFootAngles			RFFootAngles			LAbsAnkleAngle			RAbsAnkleAngle			RNeckAngles			LNeckAngles			RSpineAngles			LSpineAngles			LShoulderAngles			LElbowAngles			LWristAngles			RShoulderAngles			RElbowAngles			RWristAngles			RThoraxAngles			LThoraxAngles			RHeadAngles			LHeadAngles			LHipPower			LKneePower			LAnklePower			RHipPower			RKneePower			RAnklePower			LWaistPower			RWaistPower			LNeckPower			RNeckPower			LShoulderPower			RShoulderPower			LElbowPower			RElbowPower			LWristPower			RWristPower			F_ForcePlate1			F_ForcePlate2			F_ForcePlate3			LHipForce			RHipForce			LKneeForce			RKneeForce			LAnkleForce			RAnkleForce			LNormalisedGRF			RNormalisedGRF			LGroundReactionForce			RGroundReactionForce			LGRF			RGRF			LWaistForce			RWaistForce			LNeckForce			RNeckForce			LShoulderForce			RShoulderForce			LElbowForce			RElbowForce			LWristForce			RWristForce			Force_FP1			RawForceFP1			Force_FP2			RawForceFP2			Force_FP3			RawForceFP3			LHipMoment			RHipMoment			LKneeMoment			RKneeMoment			LAnkleMoment			RAnkleMoment			LGroundReactionMoment			RGroundReactionMoment			LWaistMoment			RWaistMoment			LNeckMoment			RNeckMoment			LShoulderMoment			RShoulderMoment			LElbowMoment			RElbowMoment			LWristMoment			RWristMoment			RawMomentFP1			RawMomentFP2			RawMomentFP3			
		X1	Y1	Z1	X2	Y2	Z2	X3	Y3	Z3	X4	Y4	Z4	X5	Y5	Z5	X6	Y6	Z6	X7	Y7	Z7	X8	Y8	Z8	X9	Y9	Z9	X10	Y10	Z10	X11	Y11	Z11	X12	Y12	Z12	X13	Y13	Z13	X14	Y14	Z14	X15	Y15	Z15	X16	Y16	Z16	X17	Y17	Z17	X18	Y18	Z18	X19	Y19	Z19	X20	Y20	Z20	X21	Y21	Z21	X22	Y22	Z22	X23	Y23	Z23	X24	Y24	Z24	X25	Y25	Z25	X26	Y26	Z26	X27	Y27	Z27	X28	Y28	Z28	X29	Y29	Z29	X30	Y30	Z30	X31	Y31	Z31	X32	Y32	Z32	X33	Y33	Z33	X34	Y34	Z34	X35	Y35	Z35	X36	Y36	Z36	X37	Y37	Z37	X38	Y38	Z38	X39	Y39	Z39	X40	Y40	Z40	X41	Y41	Z41	X42	Y42	Z42	X43	Y43	Z43	X44	Y44	Z44	X45	Y45	Z45	X46	Y46	Z46	X47	Y47	Z47	X48	Y48	Z48	X49	Y49	Z49	X50	Y50	Z50	X51	Y51	Z51	X52	Y52	Z52	X53	Y53	Z53	X54	Y54	Z54	X55	Y55	Z55	X56	Y56	Z56	X57	Y57	Z57	X58	Y58	Z58	X59	Y59	Z59	X60	Y60	Z60	X61	Y61	Z61	X62	Y62	Z62	X63	Y63	Z63	X64	Y64	Z64	X65	Y65	Z65	X66	Y66	Z66	X67	Y67	Z67	X68	Y68	Z68	X69	Y69	Z69	X70	Y70	Z70	X71	Y71	Z71	X72	Y72	Z72	X73	Y73	Z73	X74	Y74	Z74	X75	Y75	Z75	X76	Y76	Z76	X77	Y77	Z77	X78	Y78	Z78	X79	Y79	Z79	X80	Y80	Z80	X81	Y81	Z81	X82	Y82	Z82	X83	Y83	Z83	X84	Y84	Z84	X85	Y85	Z85	X86	Y86	Z86	X87	Y87	Z87	X88	Y88	Z88	X89	Y89	Z89	X90	Y90	Z90	X91	Y91	Z91	X92	Y92	Z92	X93	Y93	Z93	X94	Y94	Z94	X95	Y95	Z95	X96	Y96	Z96	X97	Y97	Z97	X98	Y98	Z98	X99	Y99	Z99	X100	Y100	Z100	X101	Y101	Z101	X102	Y102	Z102	X103	Y103	Z103	X104	Y104	Z104	X105	Y105	Z105	X106	Y106	Z106	X107	Y107	Z107	X108	Y108	Z108	X109	Y109	Z109	X110	Y110	Z110	X111	Y111	Z111	X112	Y112	Z112	X113	Y113	Z113	X114	Y114	Z114	X115	Y115	Z115	X116	Y116	Z116	X117	Y117	Z117	X118	Y118	Z118	X119	Y119	Z119	X120	Y120	Z120	X121	Y121	Z121	X122	Y122	Z122	X123	Y123	Z123	X124	Y124	Z124	X125	Y125	Z125	X126	Y126	Z126	X127	Y127	Z127	X128	Y128	Z128	X129	Y129	Z129	X130	Y130	Z130	X131	Y131	Z131	X132	Y132	Z132	X133	Y133	Z133	X134	Y134	Z134	X135	Y135	Z135	X136	Y136	Z136	X137	Y137	Z137	X138	Y138	Z138	X139	Y139	Z139	X140	Y140	Z140	X141	Y141	Z141	X142	Y142	Z142	X143	Y143	Z143	X144	Y144	Z144	X145	Y145	Z145	X146	Y146	Z146	X147	Y147	Z147	X148	Y148	Z148	X149	Y149	Z149	X150	Y150	Z150	X151	Y151	Z151	X152	Y152	Z152	X153	Y153	Z153	X154	Y154	Z154	X155	Y155	Z155	X156	Y156	Z156	X157	Y157	Z157	X158	Y158	Z158	X159	Y159	Z159	X160	Y160	Z160	X161	Y161	Z161	X162	Y162	Z162	X163	Y163	Z163	X164	Y164	Z164	X165	Y165	Z165	X166	Y166	Z166	X167	Y167	Z167	X168	Y168	Z168	X169	Y169	Z169	X170	Y170	Z170	X171	Y171	Z171	X172	Y172	Z172	X173	Y173	Z173	X174	Y174	Z174	X175	Y175	Z175	X176	Y176	Z176	X177	Y177	Z177	X178	Y178	Z178	X179	Y179	Z179	

229	1.52	517.9393310546875	1257.567138671875	232.1351165771484	390.9913940429688	1272.362060546875	205.0143585205078	520.3057250976562	1261.013305664062	346.1737365722656	386.3438720703124	1287.64306640625	371.8489990234375	313.9700012207031	1134.879028320312	289.8669128417969	281.8079528808593	984.2279663085938	298.2882385253906	426.6239929199218	1090.935424804688	292.6895751953125	455.2849426269531	1037.158813476562	296.4715881347656	282.7066345214843	1060.949096679688	383.3367004394531	366.7808837890625	1097.67822265625	153.9319305419922	308.4025268554688	907.2720336914062	117.202651977539	302.3876953125	843.1212768554688	105.8712158203125	304.4280700683594	768.89404296875	91.80219268798828	328.8113098144531	643.6303100585938	85.82201385498047	400.093017578125	653.443359375	81.92630004882812	393.4390563964844	598.3411254882812	51.00839614868165	350.5296630859374	1120.324829101562	426.8023986816406	340.5108642578124	1016.708740234375	483.639892578125	351.6259155273437	867.010498046875	534.2434692382812	418.4835205078124	731.7178955078125	558.0531616210938	442.6590881347656	694.6088256835938	565.6350708007812	503.1679687499999	733.5844116210938	554.4692993164064	530.9492797851561	680.8339233398438	588.8100585937501	297.1950683593749	787.8906860351562	290.2960205078125	437.9868469238281	750.7855224609375	190.9382171630859	467.2578125	577.6090087890625	141.0565490722657	468.7196960449219	455.066162109375	153.0297393798828	522.6295776367188	492.3262329101562	149.8549194335938	496.5474548339844	257.4960327148438	145.5921478271485	407.6322631835938	177.5915985107422	175.9229278564454	549.7334594726562	175.9937744140625	150.9234466552735	458.0289916992188	74.76689910888673	229.7144165039063	600.06640625	66.08849334716798	179.7716064453126	373.9600219726562	535.9201049804688	421.8027954101562	312.8155517578124	438.960693359375	399.9116821289063	364.1818237304687	435.6741333007812	399.9485168457032	271.2835693359374	231.2208862304688	392.5988159179688	168.1631317138671	166.509994506836	367.6829833984375	310.7133178710937	143.4635009765625	371.3357238769532	189.7256622314453	53.77144622802737	296.5041809082031	342.8858947753906	45.03660583496096	333.5421142578126	332.9284667968749	777.26220703125	297.7156677246094	337.8151245117187	775.8355712890625	298.0074768066406	333.2593994140624	777.3551025390625	292.6282653808594	347.1092224121093	826.2069091796875	299.5318298339844	423.3359374999999	746.6728515625	416.1659851074219	321.0379638671874	26.00405120849612	362.8948974609376	581.9078369140625	47.43956375122071	150.010955810547	530.5105590820312	422.530029296875	159.1258850097657	343.6706237792968	382.9736633300781	385.7323913574219	485.1713562011719	78.36765289306642	181.3611297607422	225.7525939941406	65.64109039306642	343.6463928222656	534.0949096679688	416.2638244628906	210.8699798583985	335.2590942382812	383.6553955078125	333.6439819335938	505.0997009277344	87.50331878662111	214.0843505859376	245.8690032958984	71.81854248046876	310.2477416992188	454.6896057128906	562.971435546875	136.2831420898438	371.2023925781249	528.8034057617188	432.8704528808594	472.1865234375	240.3769989013672	132.9788665771485	244.9085083007812	219.605697631836	401.3038940429688	320.4391174316406	2.04715607322563e-14	334.3259582519532	-254.2699890136719	-0.2560999989509441	231.3000030517578	-950.1600341796875	1.404999971389795	394.6300048828124	0	0	0	0	0	0	0	0	0	0	0	0	386.5389404296874	690.181640625	248.3749389648438	379.3124999999999	687.813720703125	350.0712280273438	533.2909545898438	428.8575744628906	162.7821655273438	339.6724548339843	386.4060363769531	388.0399169921876	538.5208740234375	424.888427734375	214.6132354736328	338.4602966308593	386.7173156738281	335.2878417968751	-0.2882435321807861	1.665910720825195	0.1102957651019095	320.4391174316406	2.04715607322563e-14	334.3259582519532	339.2623291015624	332.4221801757812	317.8342285156251	256.7200012207031	0.07899999618532701	396.4200134277344	-254.2699890136719	-0.2560999989509441	231.3000030517578	-254.3016357421875	-0.508408188819871	231.3088226318359	-254.2699890136719	-0.2560999989509441	231.3000030517578	-950.1600341796875	1.404999971389795	394.6300048828124	-950.1600341796875	1.404999971389795	394.6300048828124	-254.2699890136719	-0.2560999989509441	231.3000030517578	-16.15804862976074	3.282987594604492	2.041224956512449	-16.15804862976074	-3.282987594604492	-2.041224956512453	-7.014763355255127	-17.69545745849609	-1.189623951911926	-7.506834506988525	-11.02466678619385	-2.077960968017578	-44.04430389404297	-4.007620811462403	-7.703053951263433	-7.8350510597229	12.73672294616699	1.487512946128843	-33.59649658203125	-26.16091537475586	6.182571887969968	-7.463417053222656	-36.8588752746582	2.313040018081666	1.752207398414612	12.39767742156982	0.3189013004302973	-9.504971504211426	16.58038711547852	-2.349178314208987	7.951386796473776e-16	1.192708045940846e-15	8.696829391361256e-17	1.590277359294755e-15	-4.969616946319456e-16	1.453612934299129e-15	-3.936566352844238	0	-4.820903383641866e-16	-13.85496807098389	0	-1.69674423004192e-15	-8.044851303100586	-0.5736262798309326	-0.2862907648086557	-8.044851303100586	0.5736262798309326	0.2862907648086537	15.26744174957275	-2.029765129089356	-5.240895271301268	15.26744174957275	2.029765129089356	5.240895271301271	18.90554618835449	-12.81491184234619	9.71931838989258	-39.8453254699707	-5.645484622320007e-13	-4.084506350131e-15	-9.966988563537598	99.89827728271484	5.93135213851928	3.425357818603513	-0.02210057899355788	16.32610130310059	-45.74894714355469	-8.345228804870763e-13	-6.335648616337568e-15	-13.63700103759766	89.58936309814453	4.624413967132561	-0.981171309947968	-0.3669981658458707	3.415725708007812	-0.9811713099479671	0.3669981658458707	-3.415725708007812	9.041799545288086	-0.3141537010669706	3.694457769393922	9.041799545288086	0.3141537010669706	-3.69445776939392	5.515440408673633e-34	0.0735509842634201	-4.503698872616739e-18	-5.303200582007125e-33	-0.707206666469574	4.330391902138168e-17	-6.786811262752085e-36	-0.0009050531079992652	5.54185195884832e-20	-2.796848372512552e-33	-0.372972846031189	2.283800010304871e-17	4.035499009838153e-34	0.05381527170538902	-3.29523501196249e-18	-5.003914439803736e-33	-0.6672954559326172	4.086006220967267e-17	-5.548907340382247e-34	-0.07399728149175644	4.53102669622426e-18	-5.548907340382247e-34	-0.07399728149175644	4.53102669622426e-18	1.091826381834266e-34	0.01456001680344343	-8.915438986934338e-19	1.091826381834266e-34	0.01456001680344343	-8.915438986934338e-19	-8.193645013585271e-35	-0.01092660985887051	6.690618894598839e-19	-2.248481011171555e-34	-0.02998454868793488	1.836024078727871e-18	-1.361214551941314e-34	-0.01815243437886238	1.111516032940309e-18	1.512927286351157e-35	0.002017559483647346	-1.235398881869055e-19	-7.832845806140914e-36	-0.001044546719640493	6.39600398383799e-20	-4.887377660433867e-36	-0.0006517547299154103	3.990846719100274e-20	339.2623596191406	332.4221496582031	317.8342285156251	-254.3016204833985	-0.508408188819871	231.3088226318359	-950.1600341796875	1.404999971389795	394.6300048828124	-0.2882435321807861	1.665910720825195	0.1102957725524901	-0.8847733139991759	-7.507431983947754	-0.9876152873039242	0.45112544298172	0.8185173869132996	0.1473888605833054	-2.248188257217407	-8.252156257629395	-0.01519837137311674	0.2772861421108246	-0.1645030379295349	0.0007213702192530476	-8.97650146484375	0.7440827488899231	-0.6445972323417675	0	0	0	-5.232057571411134	94.06465148925781	4.636567115783685	0	0	0	0.513264834880829	9.227742195129395	-0.4548472166061406	0	0	0	0.513264834880829	9.227742195129395	-0.4548472166061406	-0.9627311229705809	-4.715498924255371	-0.505504786968231	-0.9627311229705809	-4.715498924255371	-0.505504786968231	0.07029424607753751	-0.6944013833999634	0.1739611774682999	0.07029424607753751	-0.6944013833999634	0.1739611774682999	-0.06799998134374617	0.4848950207233429	-0.123472735285759	-0.1169496178627014	0.4598687887191772	0.03618450835347171	0.1099565327167511	0.1948271840810776	-0.04333965852856636	0.08320526033639908	0.2038153111934662	0.007075183093547819	-0.009736122563481327	0.05451424792408943	-0.02662735059857369	-0.01079849153757096	0.0517091304063797	0.02907821908593177	339.2623596191406	332.4221496582031	317.8342285156251	18.82322120666504	332.4221496582031	-16.49173545837404	-254.3016204833985	-0.508408188819871	231.3088226318359	-0.03163701295852661	-0.252308189868927	0.008816275745630276	-950.1600341796875	1.404999971389795	394.6300048828124	-0.03163701295852661	-0.252308189868927	0.008816275745630276	-58.85891342163086	-0.8118466734886169	-0.5496457219123912	153.4806671142578	62.88558197021487	449.56640625	83.3040771484375	0.6236881613731401	27.23239135742189	-6.891443729400654	85.11922454833986	158.8692321777344	10.45163059234619	0.5595879554748535	0.7183816432952894	-734.9182739257812	89.92964172363281	-55.74335861206065	nan	nan	nan	563.0211181640624	39.12639617919925	589.7095947265626	289.2240600585938	-51.17391204833984	12.11702919006352	289.2240600585938	51.17391204833984	-12.11702919006344	-49.61919021606445	0.7294155359268183	-9.940033912658697	-49.61919021606445	-0.7294155359268183	9.940033912658686	2.057382583618161	-1.141068935394286	20.72064399719238	-20.74876403808594	-2.037411451339722	2.068435907363889	12.06003570556641	0.1408603340387345	1.949718475341798	8.915684700012207	-0.1172111332416533	2.730211973190309	0.395594447851181	-3.536506197126821e-16	0.6178597807884216	-0.9408792257308962	1.466410224689424e-15	1.371558547019958	20641.439453125	1404.944213867189	21181.650390625	-8.811169624328615	-13.5677375793457	14.46193504333496	-8.811169624328615	-13.5677375793457	14.46193504333496	
230	1.526666666666667	525.3081665039062	1256.727172851562	231.9754943847656	398.3429870605469	1271.166015625	204.7001800537109	527.5326538085938	1260.262573242188	346.0195617675781	393.4714355468749	1286.55224609375	371.5218505859375	321.4790954589843	1133.6982421875	289.43701171875	289.4249267578124	983.0668334960938	297.8162536621094	434.2393188476562	1089.8583984375	292.4004516601562	462.9126281738281	1036.07666015625	296.3236999511719	290.2695312499999	1059.842651367188	383.2162780761719	374.5785217285156	1096.203491210938	153.5204010009766	315.2692565917969	905.8893432617188	117.620964050293	308.7739868164062	841.8501586914062	106.6918640136719	309.3382568359375	767.7050170898438	93.20442199707031	331.2260131835938	641.9855346679688	88.367431640625	402.4055480957031	650.4373168945312	82.77200317382812	394.0118103027344	595.3998413085938	52.42906188964845	358.0671997070312	1119.4189453125	426.4009704589844	348.8793029785156	1015.904296875	483.5953674316406	361.4308471679687	866.5708618164062	535.1474609375	429.8280944824218	732.2060546875	559.5271606445312	454.4114074707031	695.4468994140625	567.22314453125	514.4722900390624	734.987548828125	555.5373535156251	542.9234619140624	682.61083984375	590.0102539062501	304.7941589355468	786.8028564453125	289.4782104492188	446.0299682617188	749.502685546875	190.7953796386719	473.48095703125	574.8189697265625	141.4025115966797	473.9053039550781	452.3255004882812	154.4806060791016	528.1100463867188	489.1617431640625	150.8500671386719	509.4421081542969	254.4350738525391	146.1268463134766	424.7804565429688	170.0440216064453	175.9917755126954	566.6658325195312	175.7700653076172	151.027572631836	480.4134216308594	69.34439086914064	229.2699890136719	622.919677734375	68.11549377441408	179.5364074707032	379.4329833984374	535.3073120117188	421.52197265625	317.4661560058593	438.8724365234375	399.6267089843751	368.8104248046874	435.1460571289062	399.7200927734376	273.5073852539062	231.4983978271485	392.2196960449219	169.7135620117187	168.0041656494141	367.0935974121094	311.9704895019531	143.2682800292969	371.2173156738282	190.1275787353515	54.74375915527346	296.1307067871094	343.0765075683593	45.00534820556643	333.5815734863282	340.4828186035156	776.1737670898438	297.0917358398438	345.3675231933593	774.7457885742188	297.4083557128906	340.8374023437499	776.259033203125	292.0057983398438	354.6730957031249	825.115966796875	298.9016418457031	430.3241577148437	745.7257080078125	416.0535278320312	321.0844726562499	26.01152420043947	362.8159484863282	605.79248046875	48.65356445312501	149.7236328125001	535.4046630859375	419.3564758300781	160.7353210449219	347.8491210937499	382.6085205078125	385.5125732421876	507.2027893066406	74.77180480957033	180.9393463134766	226.1665802001953	66.39408111572267	343.3782043457031	539.0449829101562	413.5237121582031	212.5261688232422	339.4971313476562	383.3316955566406	333.4151306152344	526.6453857421875	84.7353973388672	213.7131652832032	246.4567413330078	72.28098297119142	310.0322570800782	460.8884887695312	560.2908325195312	136.9737701416016	376.7792968749999	528.0177612304688	432.5611267089844	486.21240234375	235.7850952148438	133.7890167236328	246.9386596679687	220.2882080078125	401.0093688964844	323.0189514160156	2.050425298651516e-14	334.8598632812501	-254.2699890136719	-0.2560999989509441	231.3000030517578	-950.1600341796875	1.404999971389795	394.6300048828124	0	0	0	0	0	0	0	0	0	0	0	0	394.2901306152343	689.0012817382812	248.1290435791016	386.5901489257812	686.785888671875	349.7940063476562	537.4193115234375	427.3505249023438	164.2342376708985	343.7446289062499	385.8550415039062	387.6361694335938	542.852294921875	423.3766174316406	216.0440368652344	342.6974182128906	386.0989379882812	334.8801879882813	-0.3000378310680389	1.728835821151733	0.1037510335445403	323.0189514160156	2.050425298651516e-14	334.8598632812501	343.6775817871093	342.5478210449219	318.6612854003907	256.7200012207031	0.07899999618532701	396.4200134277344	-254.2699890136719	-0.2560999989509441	231.3000030517578	-254.3016357421875	-0.508408188819871	231.3088226318359	-254.2699890136719	-0.2560999989509441	231.3000030517578	-950.1600341796875	1.404999971389795	394.6300048828124	-950.1600341796875	1.404999971389795	394.6300048828124	-254.2699890136719	-0.2560999989509441	231.3000030517578	-16.1689281463623	3.562477588653564	2.03429341316223	-16.1689281463623	-3.562477588653564	-2.034293413162233	-4.117945194244385	-17.52748680114746	-0.8476750254631037	-7.837303161621094	-11.18111610412598	-1.971847414970398	-43.46223449707031	-4.569387435913087	-7.516143321990972	-7.260426044464111	12.9334545135498	1.488210201263426	-30.10175704956055	-26.39357566833496	5.582412242889403	-7.542102336883545	-36.98970031738281	2.318166255950929	1.849434852600098	12.5929594039917	0.3428098857402796	-9.847257614135742	16.61089706420898	-2.44043564796448	-1.023593324317968e-30	2.484808473159733e-16	8.358273789884837e-15	3.18055471858951e-15	-9.939233892638914e-16	-6.212021182899275e-17	-3.856565237045288	0	-4.722930273250466e-16	-14.17108631134033	0	-1.735457549162381e-15	-7.929782390594482	-0.5942390561103821	-0.2986157238483438	-7.929782390594482	0.5942390561103821	0.2986157238483419	15.32115268707275	-2.207994222640992	-5.235043525695799	15.32115268707275	2.207994222640992	5.235043525695803	19.3890380859375	-13.0432071685791	9.43634605407715	-39.24874114990234	-1.892430006103507e-12	-5.601723201626353e-15	-9.614249229431152	99.01808929443359	6.450823307037346	2.860775232315061	0.03440335020423037	16.62286186218262	-45.83025741577148	2.963494250343701e-12	-4.308063468920267e-15	-13.5634126663208	89.62326049804688	4.48957443237304	-0.9475482106208806	-0.461332321166992	3.443690061569214	-0.9475482106208797	0.461332321166992	-3.443690061569214	8.893508911132812	-0.3853378891944883	3.724811553955079	8.893508911132812	0.3853378891944883	-3.724811553955077	8.300237087716957e-34	0.1106875538825989	-6.777657928388745e-18	-6.210815769302657e-33	-0.8282414078712463	5.071515945354096e-17	-1.745516134402584e-35	-0.002327727619558573	1.425322089289647e-19	-3.172491704237413e-33	-0.423066645860672	2.590536068396394e-17	4.776560439250853e-34	0.06369767338037491	-3.900357590920485e-18	-5.184257851865397e-33	-0.6913450956344604	4.233267792374814e-17	-4.482336826247278e-34	-0.05977406352758408	3.660105778554319e-18	-4.482336826247278e-34	-0.05977406352758408	3.660105778554319e-18	1.046386771377662e-34	0.01395405828952789	-8.544396409692963e-19	1.046386771377662e-34	0.01395405828952789	-8.544396409692963e-19	-9.215272395656143e-35	-0.01228899788111448	7.524840959917729e-19	-2.154130841305246e-34	-0.02872634492814541	1.758981318372804e-18	-1.533606040902821e-34	-0.02045135572552681	1.252284366374515e-18	1.790405910229253e-35	0.002387590240687132	-1.461977372966477e-19	-9.259991592150458e-36	-0.001234863302670419	7.561356954999291e-20	-4.399456169747271e-36	-0.0005866881110705435	3.59242858660174e-20	343.6775817871093	342.5478515625	318.6612854003907	-254.3016204833985	-0.508408188819871	231.3088226318359	-950.1600341796875	1.404999971389795	394.6300048828124	-0.3000378012657166	1.728835940361023	0.1037510260939597	-0.9840150475502013	-7.765539646148682	-1.021685481071472	0.4749315083026886	0.8542278409004211	0.1500416398048401	-2.378195762634277	-8.502694129943848	0.03924657776951813	0.2737722098827362	-0.192083552479744	0.0002904869907070404	-9.255711555480957	0.7829432487487793	-0.6218956112861644	0	0	0	-5.806469440460206	96.21172332763672	4.592106819152825	0	0	0	0.5696146488189697	9.438369750976562	-0.4504856765270238	0	0	0	0.5696146488189697	9.438369750976562	-0.4504856765270238	-0.9834972023963927	-4.806304931640625	-0.5192334651947019	-0.9834972023963927	-4.806304931640625	-0.5192334651947019	0.05987449362874029	-0.7160711884498596	0.1768249571323395	0.05987449362874029	-0.7160711884498596	0.1768249571323395	-0.07116721570491789	0.4933095276355743	-0.1271494925022126	-0.1170863509178162	0.4649158120155334	0.03822594135999675	0.1129524484276772	0.1988757699728012	-0.04490863904356956	0.08362454921007156	0.2061231285333633	0.007125950418412683	-0.01034165173768997	0.05517822876572609	-0.02866503968834877	-0.0105501338839531	0.05214542523026466	0.0295487679541111	343.6775817871093	342.5478515625	318.6612854003907	20.65863037109375	342.5478515625	-16.19857788085939	-254.3016204833985	-0.508408188819871	231.3088226318359	-0.03163701295852661	-0.252308189868927	0.008816275745630276	-950.1600341796875	1.404999971389795	394.6300048828124	-0.03163701295852661	-0.252308189868927	0.008816275745630276	-77.41863250732422	-1.129368185997009	-4.663772106170664	184.0882568359374	57.96599197387698	450.9254455566406	97.03301239013672	0.6306850314140338	29.79490280151368	-3.376049280166645	79.2743606567383	151.9082336425781	9.556047439575195	0.655954897403717	0.7432278394699109	-780.7967529296875	84.39981842041016	-58.95932006835947	nan	nan	nan	575.2046508789061	34.63375473022464	626.4777221679689	291.3725891113281	-54.44789886474609	15.54919910430912	291.3725891113281	54.44789886474609	-15.54919910430905	-48.46660232543945	0.1179629191756243	-8.401323318481451	-48.46660232543945	-0.1179629191756243	8.40132331848144	3.192851543426511	-1.257516622543334	21.4264030456543	-21.38744735717773	-1.976488590240478	2.187075853347776	13.12893009185791	0.157824754714966	2.180753231048586	9.040884971618652	-0.1114866659045218	2.647236347198487	0.3950344026088713	2.896244977317504e-16	0.7340438961982727	-0.9275254607200625	-2.139091460080612e-15	1.428516983985901	21087.298828125	1153.247070312501	22710.55859375	-8.811169624328615	-13.5677375793457	14.46193504333496	-8.811169624328615	-13.5677375793457	14.46193504333496	
